<svg xmlns="http://www.w3.org/2000/svg" aria-hidden="true" style="position:absolute;width:0;height:0;overflow:hidden"><defs><symbol id="icon-cross" viewBox="0 0 32 32"><path stroke-linecap="round" stroke-linejoin="round" stroke-width="3.556" d="M24 8 8 24M8 8l16 16"/></symbol><symbol id="icon-search" viewBox="0 0 32 32"><path fill="#9bb537" d="M28.947 27.054 24 22.147a11.999 11.999 0 0 0-1.353-16.445 12 12 0 1 0-.5 18.298l4.907 4.907a1.334 1.334 0 0 0 1.894 0 1.336 1.336 0 0 0 0-1.854zm-14.28-3.053a9.33 9.33 0 0 1-8.623-5.762A9.339 9.339 0 0 1 8.067 8.067a9.331 9.331 0 0 1 14.36 1.415 9.33 9.33 0 0 1-1.161 11.785 9.332 9.332 0 0 1-6.6 2.734z" style="fill:var(--color1, #9bb537)"/></symbol><symbol id="icon-Star" viewBox="0 0 32 32"><path fill="#eea10c" d="M13.826 3.262c.684-2.106 3.663-2.106 4.348 0l1.932 5.945a2.285 2.285 0 0 0 2.174 1.579h6.251c2.214 0 3.135 2.833 1.344 4.135l-5.057 3.674a2.286 2.286 0 0 0-.83 2.556l1.931 5.945c.684 2.106-1.726 3.857-3.517 2.555l-5.057-3.674a2.286 2.286 0 0 0-2.687 0l-5.057 3.674c-1.791 1.302-4.202-.45-3.517-2.555l1.932-5.945a2.287 2.287 0 0 0-.83-2.556l-5.057-3.674c-1.791-1.302-.871-4.135 1.344-4.135h6.251c.99 0 1.868-.638 2.174-1.579l1.932-5.945z" style="fill:var(--color2, #eea10c)"/></symbol><symbol id="icon-order-basket" viewBox="0 0 32 32"><path stroke-linecap="round" stroke-linejoin="round" stroke-width="2.667" d="M12 29.333a1.333 1.333 0 1 0 0-2.667 1.333 1.333 0 0 0 0 2.667zM26.667 29.333a1.333 1.333 0 1 0 0-2.667 1.333 1.333 0 0 0 0 2.667z"/><path stroke-linecap="round" stroke-linejoin="round" stroke-width="2.4" d="M1.333 1.333h5.333l3.573 17.853a2.671 2.671 0 0 0 2.666 2.147h12.96a2.667 2.667 0 0 0 2.666-2.147l2.133-11.187H7.997"/></symbol><symbol id="icon-burger" viewBox="0 0 32 32"><path stroke-linecap="round" stroke-linejoin="round" stroke-width="2" d="M28 13.333H4M28 8H4M28 18.667H4M28 24H4"/></symbol></defs></svg>