<svg xmlns="http://www.w3.org/2000/svg" aria-hidden="true" style="position:absolute;width:0;height:0;overflow:hidden"><defs><symbol id="icon-cross" viewBox="0 0 20 20"><path stroke-linecap="round" stroke-linejoin="round" stroke-width="3.556" d="M24 8 8 24M8 8l16 16"/></symbol><symbol id="icon-search" viewBox="0 0 32 32"><path fill="rgba(5, 5, 5, 0.5)" d="M28.947 27.054 24 22.147a11.999 11.999 0 0 0-1.353-16.445 12 12 0 1 0-.5 18.298l4.907 4.907a1.334 1.334 0 0 0 1.894 0 1.336 1.336 0 0 0 0-1.854zm-14.28-3.053a9.33 9.33 0 0 1-8.623-5.762A9.339 9.339 0 0 1 8.067 8.067a9.331 9.331 0 0 1 14.36 1.415 9.33 9.33 0 0 1-1.161 11.785 9.332 9.332 0 0 1-6.6 2.734z" style="fill: rgba(5, 5, 5, 0.5)"/></symbol><symbol id="icon-Star" viewBox="0 0 32 32"><path fill="#eea10c" d="M13.826 3.262c.684-2.106 3.663-2.106 4.348 0l1.932 5.945a2.285 2.285 0 0 0 2.174 1.579h6.251c2.214 0 3.135 2.833 1.344 4.135l-5.057 3.674a2.286 2.286 0 0 0-.83 2.556l1.931 5.945c.684 2.106-1.726 3.857-3.517 2.555l-5.057-3.674a2.286 2.286 0 0 0-2.687 0l-5.057 3.674c-1.791 1.302-4.202-.45-3.517-2.555l1.932-5.945a2.287 2.287 0 0 0-.83-2.556l-5.057-3.674c-1.791-1.302-.871-4.135 1.344-4.135h6.251c.99 0 1.868-.638 2.174-1.579l1.932-5.945z" style="fill:var(--color2, #eea10c)"/></symbol><symbol id="icon-order-basket" viewBox="0 0 32 32"><path stroke-linecap="round" stroke-linejoin="round" stroke-width="2.667" d="M12 29.333a1.333 1.333 0 1 0 0-2.667 1.333 1.333 0 0 0 0 2.667zM26.667 29.333a1.333 1.333 0 1 0 0-2.667 1.333 1.333 0 0 0 0 2.667z"/><path stroke-linecap="round" stroke-linejoin="round" stroke-width="2.4" d="M1.333 1.333h5.333l3.573 17.853a2.671 2.671 0 0 0 2.666 2.147h12.96a2.667 2.667 0 0 0 2.666-2.147l2.133-11.187H7.997"/></symbol><symbol id="icon-burger" viewBox="0 0 32 32"><path stroke-linecap="round" stroke-linejoin="round" stroke-width="2" d="M28 13.333H4M28 8H4M28 18.667H4M28 24H4"/></symbol>  
















































<symbol id="icon-x-1" viewBox="0 0 32 32">
<path fill="none" stroke="#9bb537" style="stroke: var(--color1, #9bb537)" stroke-linejoin="round" stroke-linecap="round" stroke-miterlimit="4" stroke-width="3" d="M24 8l-16 16M8 8l16 16"></path>
</symbol> 

 <symbol id="icon-strelka" viewBox="0 0 32 32">
<path d="M1.069 6.7c-0.306 0.050-0.65 0.294-0.863 0.606-0.25 0.362-0.263 0.969-0.025 1.356 0.063 0.1 3.444 3.838 7.519 8.306 5.781 6.344 7.463 8.156 7.663 8.244 0.331 0.15 0.944 0.15 1.275 0 0.194-0.087 1.894-1.913 7.688-8.275 4.088-4.488 7.475-8.231 7.525-8.325 0.131-0.256 0.175-0.675 0.087-0.975-0.081-0.319-0.413-0.706-0.725-0.856-0.325-0.15-0.844-0.131-1.163 0.044-0.188 0.1-2.288 2.362-7.131 7.675-3.775 4.144-6.887 7.531-6.919 7.531s-3.144-3.387-6.919-7.525c-3.775-4.144-6.956-7.588-7.075-7.656-0.275-0.156-0.6-0.213-0.938-0.15z"></path>
</symbol>
 
 <symbol id="icon-krest-two" viewBox="0 0 32 32">
<path stroke-linejoin="round" stroke-linecap="round" stroke-miterlimit="4" stroke-width="3.5556" d="M24 8l-16 16M8 8l16 16"></path>
</symbol>

<symbol id="icon-heart-on" viewBox="0 0 32 32">
<path stroke-linejoin="round" stroke-linecap="round" stroke-miterlimit="4" stroke-width="2.9091" d="M15.991 6.848c-2.665-3.117-7.111-3.956-10.449-1.103-3.34 2.854-3.811 7.625-1.187 11.001 2.182 2.806 8.781 8.724 10.944 10.64 0.241 0.214 0.364 0.321 0.503 0.364 0.057 0.017 0.123 0.027 0.191 0.027s0.134-0.010 0.195-0.029l-0.005 0.001c0.141-0.042 0.262-0.15 0.505-0.364 2.163-1.916 8.764-7.834 10.944-10.64 2.623-3.375 2.211-8.177-1.187-11.001-3.398-2.825-7.786-2.016-10.452 1.101z"></path>
</symbol>
 

<symbol id="icon-heart-off" viewBox="0 0 35 32">
<path d="M8.636 0.060c-0.078 0.007-0.357 0.042-0.618 0.081-2.787 0.41-5.231 2.042-6.665 4.45-0.653 1.098-1.063 2.285-1.268 3.691-0.088 0.59-0.088 2.045-0.004 2.667 0.555 4.002 2.985 7.654 8.841 13.284 2.405 2.31 8.279 7.714 8.385 7.714 0.064 0 3.959-3.543 6.287-5.718 5.475-5.118 8.124-8.184 9.625-11.147 1.6-3.161 1.83-6.442 0.65-9.272-1.155-2.776-3.511-4.793-6.432-5.506-0.823-0.201-1.236-0.247-2.289-0.247-1.024-0.004-1.307 0.021-2.063 0.18-1.928 0.403-3.709 1.349-5.1 2.723-0.212 0.208-0.449 0.452-0.53 0.544l-0.148 0.17-0.148-0.17c-0.081-0.092-0.318-0.336-0.53-0.544-1.649-1.628-3.85-2.66-6.153-2.886-0.353-0.035-1.501-0.046-1.84-0.014zM10.119 2.72c1.565 0.145 3.009 0.749 4.231 1.766 0.441 0.371 0.731 0.689 1.932 2.119 0.547 0.65 1.007 1.183 1.024 1.183s0.502-0.565 1.081-1.254c1.134-1.353 1.642-1.89 2.169-2.282 1.787-1.335 3.889-1.83 5.997-1.406 1.628 0.325 3.076 1.24 4.034 2.539 0.328 0.449 0.427 0.611 0.668 1.113 0.844 1.759 0.925 3.779 0.233 5.845-0.699 2.091-2.077 4.143-4.712 7.011-0.696 0.756-3.129 3.168-4.366 4.327-2.2 2.063-5.051 4.68-5.1 4.68-0.078 0-4.051-3.666-6.167-5.687-6.216-5.944-8.47-9.416-8.466-13.051 0-1.201 0.201-2.116 0.682-3.126 0.244-0.502 0.339-0.668 0.668-1.113 1.37-1.858 3.719-2.886 6.093-2.667z"></path>
</symbol>

<symbol id="icon-star" viewBox="0 0 32 32">
<path d="M13.826 3.262c0.686-2.105 3.664-2.105 4.347 0l1.931 5.943c0.306 0.925 1.163 1.581 2.174 1.582h6.251c2.215 0 3.134 2.834 1.344 4.135l-5.058 3.673c-0.573 0.42-0.942 1.092-0.942 1.849 0 0.253 0.041 0.496 0.117 0.723l-0.005-0.016 1.931 5.945c0.686 2.105-1.726 3.858-3.518 2.555l-5.056-3.673c-0.372-0.273-0.839-0.437-1.344-0.437s-0.972 0.164-1.35 0.441l0.006-0.004-5.056 3.673c-1.792 1.303-4.201-0.45-3.518-2.555l1.931-5.943c0.071-0.212 0.113-0.455 0.113-0.708 0-0.757-0.368-1.429-0.936-1.845l-0.006-0.004-5.058-3.673c-1.79-1.303-0.869-4.137 1.344-4.137h6.251c1.008-0.001 1.864-0.654 2.167-1.561l0.005-0.016 1.934-5.943z"></path>
</symbol>

</defs></svg>
 
